<svg xmlns="http://www.w3.org/2000/svg" class="icon" viewBox="0 0 1024 1024"><path d="M705.798 175.178c2.745-7.678 0-16.453-6.038-21.94-20.86-18.102-73.013-56.498-150.967-61.982-87.834-6.582-142.183 17.004-169.63 34.557-12.08 7.678-12.628 24.682-1.648 32.909l223.43 173.883c19.764 15.359 48.86 6.58 56.543-17.005l47.762-140.422zm-551.16 515.596c-9.332 6.035-13.174 17.553-10.431 27.976 8.235 30.715 34.036 93.797 105.952 151.94 71.916 57.594 157.005 64.178 193.236 63.08 10.98 0 20.312-7.132 23.605-17.552l143.283-453.08c10.429-32.911-26.35-60.339-54.897-41.14zm104.847-478.32c-7.138-2.742-14.822-2.193-21.408 1.098-26.354 14.262-94.424 58.694-129.558 150.297-27.45 70.211-18.116 148.1-10.432 185.948 2.197 12.617 15.373 19.747 27.45 14.81L555.38 396.762c30.74-12.069 30.74-55.401 0-67.472L259.485 212.46zm637.912 324.768c12.625 8.227 29.644 1.097 31.84-13.713 5.49-39.493 10.432-107.51-12.077-159.62-30.195-68.567-81.796-111.35-106.5-128.355-7.684-5.484-18.116-4.936-25.251 1.645L676.71 333.17c-17.567 15.907-15.919 43.883 3.845 57.046zm-303.584 366.92c-1.097 12.616 9.883 23.585 22.508 21.94 41.172-4.388 125.713-20.844 188.846-81.18 61.484-58.695 81.795-128.355 87.285-156.33 1.649-7.679 0-15.36-4.941-21.392L697.569 432.96c-20.312-25.233-61.484-12.617-64.23 19.747l-39.526 450.886z"/></svg>