<svg xmlns="http://www.w3.org/2000/svg" class="icon" viewBox="0 0 1024 1024"><path d="M233.101 116.492c-45.22 0-61.897 16.677-61.897 61.897v545.966c0 5.108.23 9.854.626 14.205 1.12 9.954 1.22 19.545 10.448 30.388.857 1.253 10.218 8.108 10.218 8.108 4.976 2.505 8.47 4.219 14.172 6.592l274.68 115.093c14.205 6.493 20.204 9.096 30.52 8.734H512c10.448.362 16.447-2.241 30.652-8.734l274.647-115.093c5.735-2.373 9.097-4.087 14.205-6.592 0 0 9.36-6.987 10.218-8.108 9.228-10.843 9.327-20.434 10.448-30.388.395-4.35.659-9.097.659-14.172V178.356c-.033-45.187-16.743-61.864-61.963-61.864zm440.2 102.503h22.412c37.376 0 55.57 18.193 55.57 55.931v61.93h-45.22v-59.425c0-12.096-5.604-17.7-17.304-17.7h-7.712c-12.096 0-17.7 5.604-17.7 17.7v191.59c0 12.063 5.604 17.667 17.7 17.667h8.569c11.602 0 17.205-5.604 17.205-17.667v-68.554h45.351v70.664c0 37.738-18.589 56.294-56.063 56.294H673.3c-37.606 0-56.03-18.688-56.03-56.294V275.32c0-37.639 18.424-56.326 56.03-56.326M271.597 221.5h102.634v42.088h-56.557v85.825h54.448v41.99h-54.448v91.428h57.316v41.99H271.597zm125.805 0h72.378c37.474 0 56.03 18.687 56.03 56.425v80.585c0 37.738-18.556 56.327-56.03 56.327h-26.17V524.82h-46.208zm149.238 0h46.077V524.82H546.64zm-103.162 40.869v111.73h19.084c11.568 0 17.171-5.602 17.171-17.797v-76.135c0-12.195-5.603-17.798-17.171-17.798zM316.421 597.034h6.856l1.516.23h2.472l1.252.396h1.253l1.252.363 1.22.264 1.12.23 1.12.264 1.122.23 1.252.396.989.23.988.396 1.253.363.989.494 1.285.495 1.12.494.99.66 1.252.46.857.66 1.252.593.99.66 1.12.593.988.758.99.626.988.725 1.022.758.988.857.99.758-.726.989-.89.89-.725.988-.89.99-.725.89-.758.856-.89.989-.725.989-.758.89-.857.988-.758.99-.89.988-.725.89-.758.988-.857.99-.758 1.021-.857.857-.758.989-.989-.725-.988-.857-.99-.66-1.153-.725-.857-.626-1.12-.626-.99-.626-1.153-.626-.988-.495-.99-.494-.988-.363-1.12-.395-1.253-.33-.989-.264-1.252-.263-1.253-.264-1.252-.099h-1.351l-1.517-.263h-2.471l-1.253.131h-1.252l-1.253.363-1.12.264-1.121.362-1.22.363-.988.494-1.253.527-.89.594-.988.659-.99.593-.89.758-.856.758-.89.725-.725.89-.989.857-.659.989-.593.89-.758.989-.495 1.12-.659.989-.593 1.12-.363 1.121-.527 1.12-.33 1.253-.164 1.253-.363 1.12-.264 1.385v1.219l-.23 1.252v2.967l.132 1.285.098 1.12.132 1.22.264 1.253.362.988.132 1.253.363.989.395.988.495 1.286.626 1.22.494.988.627.989.725 1.022.758.988.626.89.989.857.758.89.857.725.988.758.99.758 1.021.627.989.593 1.12.527 1.253.495.989.494 1.252.362 1.252.396 1.253.23 1.22.264 1.252.132 1.516.099h4.087l1.516-.23h1.22l1.252-.396 1.252-.23 1.253-.396 1.12-.231 1.121-.494.989-.495 1.252-.527.758-.495.989-.626v-11.437h-18.193v-18.457h41.1v41.133l-.857.725-.99.758-.89.627-.988.758-.989.593-.988.758-.99.626-1.02.626-1.253.627-1.12.626-.99.626-1.252.494-.989.627-1.252.494-1.253.494-1.252.495-1.12.494-1.121.363-1.121.395-1.22.363-1.12.362-1.253.396-1.12.23-1.253.264-1.252.264-1.253.23-1.219.132-1.252.132-1.253.132-1.483.099-1.252.132-1.385.132h-6.46l-1.384-.264h-1.252l-1.22-.23h-1.252l-1.253-.396-1.252-.23-1.253-.265-1.22-.23-.988-.396-1.252-.23-1.253-.396-1.12-.494-1.121-.363-1.252-.494-1.121-.495-1.253-.494-.988-.527-1.253-.594-.857-.659-1.252-.593-.89-.66-.989-.593-.989-.758-.988-.758-1.12-.725-.759-.758-.989-.758-.89-.857-.857-.758-.89-.857-.725-.89-.89-.857-.725-.988-.758-.89-.626-.99-.758-.988-.626-.989-.593-.988-.66-1.154-.593-.989-.494-1.12-.495-1.121-.527-1.12-.494-1.121-.363-.989-.494-1.12-.264-1.121-.362-1.12-.264-1.253-.363-1.12-.263-1.253-.1-1.12-.263-1.253-.132-1.12-.099-1.253-.131-1.22-.132-1.252v-6.856l.263-1.252v-1.352l.33-1.252v-1.252l.395-1.253.396-1.22.23-1.252.363-1.12.396-1.253.362-1.12.495-1.253.494-1.12.527-1.121.495-1.12.494-1.121.626-1.12.627-.99.593-.988.66-.99.592-.988.758-1.022.758-.988.726-.99.89-.89.725-.856.758-.89.988-.857.758-.89.99-.758.89-.857.988-.758.989-.725.988-.66.99-.724.988-.626 1.022-.627 1.12-.626 1.253-.626.988-.593 1.253-.528 1.12-.494 1.253-.626.989-.33 1.252-.395 1.12-.495 1.121-.263 1.121-.363 1.252-.264 1.121-.362 1.22-.264h1.252l1.252-.362h1.253l1.252-.264h1.22zm395.146.23h6.822l1.516.265h2.472l1.253.362h1.483l1.252.396 1.12.23 1.253.264 1.253.23 1.12.264 1.253.363 1.22.395.988.231 1.252.495 1.253.395.989.494 1.252.495 1.253.494 1.12.66.89.46 1.22.66 1.12.593.989.626 1.153.759.99.593.988.758.989.758.989.725-.726.989-.626 1.022-.758.988-.725.989-.758 1.12-.626.99-.758.988-.725 1.022-.66.989-.725.988-.758.99-.725 1.021-.659 1.12-.725.99-.857.988-.66.989-.724 1.022-.989-.758-1.12-.627-.99-.593-.988-.758-1.154-.494-.989-.66-1.252-.461-.857-.494-1.252-.528-.99-.494-.988-.363-1.12-.494-1.253-.363-1.252-.395-1.253-.363-1.351-.263-1.253-.231-1.252-.264-1.252-.132-1.22-.131-1.12-.1h-2.77l-1.35.231-1.253.264-1.252.23-.99.528-.856.495-1.12.988-.759 1.121-.494 1.12v3.099l.626 1.384.495.758.856.857 1.253.66.989.592 1.252.495 1.253.494 1.615.495.988.263.99.363 1.252.263.988.363 1.253.264 1.384.362 1.351.363 1.385.395 1.384.231 1.22.396 1.384.362 1.252.264 1.22.362 1.252.363 1.252.395 1.253.363 1.12.362 1.253.396 1.22.494 1.252.627 1.252.494 1.253.626 1.252.626.989.627.989.593 1.12.758.89.66 1.12.856.858.857.989.989.89.89.626.988.857 1.253.626.857.494 1.252.626.857.363 1.253.396.988.23 1.253.264 1.252.23 1.253.132 1.252.132 1.22v3.13l-.132 1.352-.131 1.252-.1 1.385-.263 1.252-.362 1.22-.264 1.252-.363 1.253-.494 1.12-.494.989-.528 1.12-.593.99-.758.988-.66.989-.593 1.022-.857.89-.758.856-.89.758-.988.857-.857.758-.989.758-.989.594-1.021.758-1.253.626-.989.494-1.252.66-1.253.461-1.219.494-1.252.396-1.253.362-.989.363-1.252.264-1.253.263-.988.231-1.253.264h-1.252l-1.22.23h-1.252l-1.253.264h-9.228l-1.22-.132-1.252-.132-1.384-.098-1.253-.264-1.22-.132-1.252-.23-1.252-.264-1.384-.363-1.22-.264-1.252-.362-1.253-.264-1.252-.362-1.22-.396-1.252-.494-1.12-.363-1.253-.362-1.253-.528-.988-.494-1.253-.494-.989-.627-1.252-.494-1.12-.626-.858-.626-1.252-.627-.89-.593-1.12-.66-.99-.724-.988-.758-.989-.725-.989-.758-.89-.758-.988-.857.725-.99.89-.89.758-.988.857-.989.758-.89.725-.988.89-.99.758-.889.857-.989.758-.857.857-.988.758-.99.725-.89.89-.988.758-.989.857-.89.89-.988.857.725 1.252.758.857.758 1.252.725.99.66 1.12.724.989.627 1.153.494.989.626 1.12.495 1.253.494.989.494 1.252.363.989.527 1.252.33 1.22.395 1.252.396 1.253.23 1.252.264 1.253.23h1.351l1.252.396h6.856l1.252-.263 1.22-.264.989-.23.988-.363.89-.528 1.12-.725.66-.89.593-.988.363-1.253v-2.867l-.495-1.22-.725-.988-.758-.759-1.12-.758-.89-.494-1.22-.494-1.252-.495-1.483-.659-.89-.23-.989-.264-1.252-.33-.99-.264-1.252-.395-1.252-.23-1.351-.396-1.253-.231-1.384-.395-1.22-.231-1.252-.396-1.252-.23-1.253-.396-1.252-.33-1.22-.263-1.12-.396-1.121-.362-1.12-.396-1.253-.494-1.384-.495-1.253-.494-1.22-.494-1.252-.627-1.252-.626-.857-.626-1.253-.626-.89-.725-1.12-.66-.725-.725-.89-.856-.989-.89-.758-.857-.725-.89-.66-.857-.592-.989-.66-1.12-.461-.89-.395-.99-.363-1.12-.363-.989-.263-1.252-.231-1.12v-1.253l-.264-1.252v-5.34l.132-1.252.132-1.253.23-.988.264-1.253.363-.989.264-1.252.494-.989.494-1.252.495-.99.626-1.252.626-.988.857-.99.66-.988.988-.989.857-.89.758-.988 1.12-.89.726-.626 1.12-.758.99-.726.988-.659 1.252-.593.99-.494 1.285-.627.988-.494 1.253-.396 1.22-.494 1.252-.362.89-.264 1.22-.23.988-.265 1.252-.23 1.253-.264 1.252-.132 1.253-.132 1.252-.098zm-304.442.89h23.302l.494 1.121.494 1.121.495 1.12.362 1.253.495 1.12.494 1.121.527 1.12.495 1.121.362 1.121.626 1.22.495 1.12.494 1.154.264 1.12.494 1.12.627 1.122.494 1.219.494 1.12.363 1.121.494 1.12.66 1.121.329 1.121.527 1.252.363 1.253.494.989.66 1.252.46.989.495 1.252.396 1.253.362.989.627 1.252.494.989.494 1.252.363.989.527 1.252.626 1.253.495 1.12.362 1.121.363 1.12.494 1.121.66 1.12.46 1.22.528 1.154.33 1.12.527 1.121.495 1.12.494 1.121.494 1.22.396 1.12.494 1.121.626 1.12.495 1.121.494 1.12.264 1.253.494 1.12.626 1.122.495 1.12.362 1.12.495 1.121.494 1.253.66 1.252.329.989.527 1.252.363.99.494 1.252.626 1.252.495.989.362 1.252.528.99.362 1.252.627.988.494 1.253.362 1.252.495.989.527 1.252.593.99.528 1.252.33 1.22.395.988.494 1.252.66.989h-25.807l-.66-1.088-.33-1.12-.527-1.12-.494-1.253-.362-1.12-.495-1.121-.494-1.121-.396-1.12-.494-1.121-.495-1.12-.362-1.121-.494-1.253-.495-1.12-.395-1.121-.495-1.12H400.5l-.495 1.252-.362.988-.495 1.253-.626 1.22-.263.988-.495 1.286-.494.988-.363 1.253-.494.989-.495 1.252-.395.989-.494 1.252-.495 1.22-.494.988-.363 1.253h-25.543l.494-1.22.495-1.12.494-1.12.396-1.253.33-1.12.658-1.121.495-1.121.494-1.12.363-1.121.494-1.253.66-1.12.46-1.12.396-1.122.363-1.12.494-1.12.66-1.253.46-1.12.495-1.121.396-1.121.494-1.12.494-1.121.495-1.253.494-1.252.396-.989.494-1.252.626-.99.495-1.252.362-1.219.363-.989.494-1.252.66-.989.46-1.252.528-.99.33-1.252.527-1.252.626-.989.363-1.252.494-.99.396-1.251.494-1.253.626-.989.495-1.252.362-.989.495-1.252.395-.99.626-1.252.495-1.252.494-1.12.363-1.121.494-1.12.66-1.121.46-1.121.264-1.252.495-1.121.494-1.12.626-1.121.495-1.12.362-1.122.528-1.252.494-1.22.494-.988.495-1.253.362-.988.495-1.253.494-1.252.66-.99.46-1.252.396-.988.363-1.253.494-.988.66-1.253.46-1.252.396-.99.495-1.252.494-.988.626-1.253.363-1.252.362-.989.528-1.252zm72.246.627h25.543l.725.989.66 1.12.724.99.626 1.12.627.989.626 1.12.593.989.758 1.153.626.99.627.988.626 1.12.626.99.857 1.12.494.989.66 1.153.725.99.758.988.494 1.12.725.99.66 1.12.46.989.89 1.153.627.989.626 1.12.626.99.594.988.758 1.12.626.99.626 1.153.626.989.627 1.12.725.99.659 1.12.593.989.758-.99.495-1.252.758-.857.725-1.252.659-.857.461-1.252.89-.89.626-1.22.495-.89.758-.988.725-1.253.66-.857.592-1.252.627-.89.758-1.22.593-.89.66-1.252.592-.857.66-.989.725-1.252.626-.89.626-1.22.725-.89.66-1.252.593-.857.758-.989.626-1.252.725-.89.66-1.22.592-.89.66-1.252.725-.857.626-1.252.626-.857h25.774v91.923h-24.192V636.65l-.593.857-.758 1.252-.626.857-.758.989-.627 1.252-.725.89-.659.99-.725 1.252-.626.856-.626.99-.857.988-.627 1.285-.758.857-.626.99-.593 1.252-.758.856-.626.99-.758 1.252-.627.89-.725.988-.659 1.253-.593.857-.758.988-.627 1.253-.725.89-.758.989-.626.988-.626 1.253-.758.89-.725.988-.495 1.253-.89.857-.626.989-.725 1.252-.659.89h-.461l-.759-1.12-.626-.99-.758-1.153-.626-.989-.725-1.12-.66-.99-.724-1.12-.627-.989-.725-1.12-.659-.989-.857-1.153-.494-.99-.758-1.12-.725-.989-.66-1.12-.725-.989-.626-1.252-.725-.99-.66-1.12-.724-.989-.626-1.153-.759-.989-.593-1.12-.758-.99-.626-1.12-.758-.989-.626-1.12-.725-.989-.66-1.154-.725-.988-.626-1.121-.857-.989-.494-1.12-.758-.99v54.185h-23.896V599.87zm114.367 0h72.477v20.764h-48.45v14.733h43.572v19.545h-43.539v15.82h49.076v20.797H593.87v-90.934zm-175.276 28.147-.494 1.252-.395.99-.495 1.252-.494 1.22-.363 1.12-.494 1.12-.528 1.253-.494 1.252-.362.989-.495 1.252-.494.99-.396 1.252-.494 1.252-.495.989-.362 1.252-.494.99-.495 1.251-.527 1.253-.33.989-.527 1.252-.494 1.253-.363.988-.527 1.253h21.192l-.494-1.253-.396-1.12-.494-1.253-.494-1.12-.363-1.12-.494-1.122-.495-1.252-.395-1.12-.495-1.121-.494-1.12-.363-1.121-.494-1.253-.395-1.12-.495-1.121-.494-1.12-.363-1.121-.494-1.22-.495-1.252-.395-.989-.494-1.252-.495-1.253-.362-1.12zM380.56 799.073h264.1l-134.802 44.494z"/></svg>