<svg xmlns="http://www.w3.org/2000/svg" class="icon" viewBox="0 0 1024 1024"><path d="M642.5 248.638c5.231-2.982 10.856-6.076 16.875-9.563l2.081 10.575c1.125 5.512 2.081 10.069 2.531 14.512 3.544 38.925 23.12 67.613 50.85 74.026 40.557 9.45 78.807-6.188 99.394-40.5 24.75-41.175 14.063-91.688-28.125-122.063-117.168-84.431-245.869-107.719-384.581-66.994C102.556 196.775.238 564.087 212.469 789.312c90.787 96.357 206.044 137.926 336.937 134.776 167.625-3.938 288.282-87.47 365.4-232.257C969.37 589.12 910.025 476.844 796.287 453.5a736 736 0 0 0-197.55-12.656c-21.937 2.137-43.312 8.606-62.775 19.125-21.768 11.25-28.012 34.706-25.593 57.937 2.25 21.15 18.506 33.863 37.8 37.069 38.925 6.075 78.3 9.563 117.562 12.825 11.363.956 22.838 1.125 34.313 1.181 16.481.169 32.85.338 48.937 2.982 45.731 7.537 61.425 44.662 37.913 84.375-5.794 9.562-12.488 18.506-20.082 26.662a228 228 0 0 1-115.48 68.344c-81.226 19.856-162.507 20.981-243.282-4.5-92.025-29.081-146.925-96.638-148.838-187.65a315.4 315.4 0 0 1 41.288-160.2c12.544-22.725 19.406-46.125 17.438-71.944-.788-10.969-1.238-21.937-1.688-33.75l-.9-19.687c9.338 1.912 18.563 4.387 27.563 7.312 35.212 14.175 69.862 20.644 108 10.238a195.2 195.2 0 0 1 66.15-4.163 165.77 165.77 0 0 0 101.643-24.862c7.594-4.444 15.244-8.72 23.681-13.5z"/></svg>