<svg xmlns="http://www.w3.org/2000/svg" class="icon" viewBox="0 0 1024 1024"><path d="M255.217 268.202c-8.141 0-17.304.66-27.686 2.9-10.975 2.308-42.187 9.328-67.698 33.85-56.623 50.493-42.187 130.748-40.407 142.844 2.142 14.7 8.668 55.602 39.88 91.23 57.645 70.566 181.703 68.95 181.703 68.95s15.227 36.354 38.496 69.84c31.476 41.628 63.808 74.092 95.251 78.015 79.3 0 237.7-.132 237.7-.132s15.096.132 35.596-12.986c17.633-10.679 33.388-29.432 33.388-29.432s16.216-17.37 38.891-57.02c6.922-12.194 12.69-24.027 17.732-35.2 0 0 69.445-147.36 69.445-290.797-1.384-43.44-12.096-51.086-14.601-53.624-5.142-5.142-12.063-5.043-12.063-5.043s-147.491 8.306-223.857 10.086c-16.744.362-33.355.758-49.834.89V430.03l-20.896-9.92c0-45.814-.132-137.44-.132-137.44-36.486.528-112.226-2.768-112.226-2.768s-177.945-8.9-197.325-10.679c-6.163-.362-13.217-1.055-21.357-1.055zm11.667 60.381h3.658s8.932 74.784 19.776 118.554c9.064 36.749 31.18 97.822 31.18 97.822s-32.828-3.922-54.087-11.47c-32.629-10.678-46.439-23.532-46.439-23.532s-24.06-16.842-36.123-50.098c-20.764-55.635-1.747-89.583-1.747-89.583s10.547-28.311 48.45-37.738c13.019-3.493 28.444-3.955 35.332-3.955m274.548 84.177c8.57.1 16.776 4.186 16.776 4.186l28.609 13.909-17.435 35.43a22.61 22.61 0 0 0-20.237 11.833 22.58 22.58 0 0 0 2.373 24.917l-30.949 63.413a22.74 22.74 0 0 0-21.753 17.37 22.64 22.64 0 0 0 11.437 25.147 22.61 22.61 0 0 0 28.576-6.79 22.676 22.676 0 0 0-2.275-29.069l30.19-61.765a22 22 0 0 0 7.812-.66 21.65 21.65 0 0 0 8.932-4.515 291 291 0 0 1 33.486 16.875 25.1 25.1 0 0 1 9.427 9.295c2.406 6.921-2.406 18.753-2.406 18.753-2.868 9.558-23.138 51.087-23.138 51.087a22.81 22.81 0 0 0-22.28 15.721 22.445 22.445 0 1 0 38.134-8.305c2.406-4.648 4.647-9.295 7.053-14.206 6.262-13.084 16.974-38.232 16.974-38.232 1.153-2.175 7.185-12.986 3.395-26.829-3.132-14.337-15.82-21.028-15.82-21.028-15.393-9.92-36.783-19.116-36.783-19.116s0-5.141-1.384-8.899a22.7 22.7 0 0 0-4.878-7.943l17.007-35.002 95.251 46.175s15.82 7.185 19.215 20.402c2.406 9.294-.626 17.6-2.274 21.654-7.91 19.347-69.214 142.284-69.214 142.284s-7.646 18.26-24.653 19.38a35.1 35.1 0 0 1-12.953-1.483l-6.658-2.637-142.053-69.214s-13.744-7.185-16.15-19.644c-2.735-10.217 3.428-22.774 3.428-22.774l68.324-140.801s6.031-12.195 15.359-16.38a28.2 28.2 0 0 1 11.535-2.539"/></svg>