<svg xmlns="http://www.w3.org/2000/svg" class="icon" viewBox="0 0 1024 1024"><path d="M154.266 685.414c-.922-14.745 6.144-23.347 17.817-30.105 70.963-41.165 141.927-82.637 213.197-123.495 84.787-48.844 169.882-97.69 254.669-146.841 14.131-8.295 26.726-7.68 40.243 0 56.525 32.87 113.05 65.433 169.267 98.304 24.883 14.438 25.19 43.008.307 57.446C694.323 630.426 538.573 720.128 383.13 809.83c-14.746 8.602-28.263 8.602-43.008 0-56.832-32.563-113.664-65.126-170.19-97.69-10.751-6.143-16.895-14.438-15.666-26.726m236.236-383.078c0-31.027.308-62.362 0-93.389-.307-16.896 6.452-28.57 21.504-37.171C488.192 128.461 564.07 84.531 639.95 40.294c13.517-7.987 26.419-8.294 40.243-.307 56.525 32.87 113.05 65.127 169.574 97.997 24.884 14.438 24.576 42.7-.614 57.14-98.304 56.831-196.3 113.356-294.298 169.88-36.556 21.198-73.113 42.394-109.977 63.591-30.106 17.203-54.067 3.38-54.067-31.334-.308-31.642-.308-63.283-.308-94.925m478.004 554.189c-.922 11.673-5.223 21.811-15.975 27.955-58.368 33.485-117.043 66.97-175.411 100.762-11.98 6.758-23.04 6.45-34.714-.308-57.753-33.484-115.814-66.662-173.568-100.454-23.04-13.517-22.732-42.394.615-55.603l172.339-99.533c12.288-7.066 24.269-7.066 36.25-.307 58.368 33.485 116.428 67.277 174.796 101.069 10.138 5.836 14.439 15.052 15.668 26.419"/></svg>