<svg xmlns="http://www.w3.org/2000/svg" class="icon" viewBox="0 0 1024 1024"><path d="M325.039 610.816v76.891c0 12.875 9.409 18.67 20.907 12.884l73.385-36.932v-28.795l-73.381-36.937c-11.502-5.787-20.911.014-20.911 12.888m312.138-165.583c32.274 0 58.531-26.253 58.531-58.527s-26.257-58.531-58.531-58.531c-32.27 0-58.523 26.258-58.523 58.532s26.253 58.527 58.523 58.527m-185.329-.337c41.954 0 76.082-34.132 76.082-76.086s-34.128-76.086-76.081-76.086-76.086 34.133-76.086 76.086 34.132 76.086 76.086 76.086"/><path d="M809 107H215c-59.647 0-108 48.353-108 108v594c0 59.648 48.353 108 108 108h594c59.648 0 108-48.352 108-108V215c0-59.647-48.352-108-108-108M451.849 242c47.506 0 88.969 26.271 110.686 65.039 19.548-18.329 45.801-29.588 74.646-29.588 60.246 0 109.255 49.014 109.255 109.256s-49.014 109.25-109.255 109.25c-36.392 0-68.666-17.905-88.533-45.355-23.279 27.509-58.023 45.018-96.8 45.018-69.925 0-126.81-56.889-126.81-126.81S381.923 242 451.848 242m295.888 444.407c0 52.713-42.88 95.593-95.593 95.593H514.925c-41.36 0-76.662-26.406-89.95-63.252l-77.185 37.269c-8.293 4.005-16.681 6.03-24.939 6.03h-.004c-26.991 0-46.584-21.42-46.584-50.917V587.582c0-29.511 19.593-50.926 46.588-50.926 8.258 0 16.646 2.029 24.935 6.034l76.99 37.174c13.127-37.143 48.573-63.837 90.149-63.837h137.214c52.713 0 95.593 42.885 95.593 95.598v74.781z"/><path d="M652.144 566.747H514.925c-24.741 0-44.874 20.133-44.874 44.874v74.786c0 24.74 20.133 44.873 44.874 44.873h137.214c24.741 0 44.874-20.133 44.874-44.874v-74.785c0-24.741-20.129-44.874-44.87-44.874"/></svg>