<svg xmlns="http://www.w3.org/2000/svg" class="icon" viewBox="0 0 1024 1024"><path d="M583.719 907.508H704.81c111.27 0 202.698-91.428 202.698-202.698V319.19c0-111.237-91.428-202.698-202.698-202.698H581.214c-2.44 0-4.944 2.44-4.944 4.944v781.128c-.033 2.505 2.472 4.944 7.449 4.944m150.754-435.026c44.528 0 79.069 37.079 79.069 79.036 0 44.56-37.08 79.101-79.069 79.101-44.494 0-79.101-34.574-79.101-79.101-2.472-44.462 34.607-79.036 79.101-79.036m-242.248-355.99H319.19c-111.237 0-202.698 91.461-202.698 202.698v385.62c0 111.27 91.461 202.698 202.698 202.698h173.035c2.439 0 4.943-2.44 4.943-4.911V121.436c.033-2.505-2.471-4.944-4.943-4.944m-56.822 726.779H319.19a138.23 138.23 0 0 1-138.46-138.46V319.19a138.23 138.23 0 0 1 138.46-138.46h113.708zM240.088 353.764c0 42.023 32.135 74.158 74.158 74.158s74.158-32.135 74.158-74.158c0-41.957-32.135-74.158-74.158-74.158s-74.158 32.201-74.158 74.158"/></svg>