<svg xmlns="http://www.w3.org/2000/svg" class="icon" viewBox="0 0 1024 1024"><path d="M929.595 418.492c-7.763-22.189-289.806-42.02-289.806-42.02s-104.33-261.956-129.562-261.956c-25.228 0-129.613 261.956-129.613 261.956s-280.84 19.727-289.807 42.02c-8.97 22.288 209.712 203.92 209.712 203.92s-64.571 275.827-49.516 287.91c15.103 12.09 259.172-135.945 259.172-135.945s242.23 153.166 259.227 135.946c12.483-12.662-21.034-167.659-39.183-246.05-.577-2.509-94.733 10.47-199.115 11.148-92.685.628-196.074-5.654-196.074-5.654l241.34-179.222s-75.009-13.658-131.971-18.784c-81.41-7.327-152.744-7.17-143.88-9.418 14.11-3.56 113.037-12.823 209.708-9.422 88.23 3.142 175.51 18.788 175.51 18.788L444.4 643.396s52.712 8.113 96.463 9.789c83.347 3.19 185.055.888 184.848 0-3.098-13.134-5.822-30.773-5.822-30.773s217.47-181.734 209.707-203.92m0 0"/></svg>