<svg xmlns="http://www.w3.org/2000/svg" class="icon" viewBox="0 0 1024 1024">
  <path d="M967.11111147 489.2444448c0-63.7155552-50.06222187-113.77777813-113.77777814-113.77777813-27.30666667 0-54.61333333 9.10222187-72.81777813 27.30666666-68.26666667-40.96-150.18666667-68.26666667-245.76-72.81777813l50.06222293-182.04444373 154.73777707 45.5111104a91.02222187 91.02222187 0 0 0 91.02222293 91.02222293A91.02222187 91.02222187 0 0 0 921.6 193.42222187 91.02222187 91.02222187 0 0 0 830.57777813 102.4c-31.85777813 0-63.7155552 18.2044448-77.3688896 45.51111147L571.1644448 102.4c-13.65333333-4.55111147-22.7555552 4.55111147-27.30666667 18.2044448L489.2444448 329.9555552c-91.02222187 4.55111147-177.49333333 31.85777813-245.76 72.81777813-18.2044448-18.2044448-45.51111147-27.30666667-72.81777813-27.30666666-63.7155552 0-113.77777814 50.06222186-113.77777814 113.77777813 0 40.96 18.2044448 72.81777813 50.06222294 95.57333333l-4.55111147 40.96C102.4 789.61777813 284.4444448 921.6 512 921.6s409.6-131.98222187 409.6-295.82222187l-4.55111147-40.96c31.85777813-22.7555552 50.06222187-54.61333333 50.06222294-95.57333333m-591.6444448 13.65333333c31.85777813 0 54.61333333 27.30666667 54.61333333 54.61333334s-22.7555552 54.61333333-54.61333333 54.61333333-54.61333333-22.7555552-54.61333334-54.61333333 22.7555552-54.61333333 54.61333334-54.61333334m309.4755552 245.76c-81.92 50.06222187-263.9644448 50.06222187-345.88444374 0-9.10222187-9.10222187-13.65333333-22.7555552-4.55111146-31.85777813 9.10222187-9.10222187 22.7555552-13.65333333 31.85777813-4.55111147 54.61333333 40.96 236.65777813 40.96 291.2711104 0 9.10222187-9.10222187 22.7555552-4.55111147 31.85777813 4.55111147 9.10222187 9.10222187 4.55111147 22.7555552-4.55111146 31.85777813M648.53333333 612.1244448c-31.85777813 0-54.61333333-27.30666667-54.61333333-54.61333333 0-31.85777813 27.30666667-54.61333333 54.61333333-54.61333334 31.85777813 0 54.61333333 27.30666667 54.61333334 54.61333334 0 31.85777813-22.7555552 54.61333333-54.61333334 54.61333333"/>
</svg>
