<svg xmlns="http://www.w3.org/2000/svg" class="icon" viewBox="0 0 1024 1024"><path d="M627.849 139.176c-.51-4.818 3.932-9.03 8.701-8.435 24.334 0 48.68-.072 73.012.037 4.503-.316 8.29 3.908 7.913 8.313.085 18.97-.012 37.95.049 56.932 62.053.012 124.106-.013 186.158.012 4.794-.546 9.006 3.883 8.423 8.64.024 23.897 0 47.793.024 71.69.073 2.597-.425 5.437-2.512 7.197-2.937 2.755-7.245 1.893-10.874 2.05-60.415-.048-120.817-.024-181.231-.011-.013 63.994-.013 127.989.012 191.984 61.215.012 122.443-.013 183.67.012 4.794-.546 8.933 3.956 8.362 8.665-.012 109.676 0 219.34-.012 329.015.073 18.532-5.789 37.028-16.614 52.077-12.428 17.537-31.373 30.329-52.308 35.22-12.342 3.106-25.134 2.366-37.732 2.451H560.116c-2.56.036-5.328-.485-7.063-2.524-3.022-3.277-1.809-8.035-2.04-12.04.013-133.086.037-266.16-.011-399.247.182-3.69-.801-8.01 1.917-11.02 1.724-2.185 4.6-2.743 7.246-2.622 22.549.025 45.11.013 67.672.013.012-112.807-.013-225.614.012-338.409m12.78 676.186c59.77.024 119.542.012 179.313 0q.018-124.1 0-248.2c-59.747-.06-119.482.061-179.229-.072-.206 82.757-.036 165.515-.085 248.272M140.952 166.58c16.408-21.287 42.816-34.491 69.723-34.516 91.459-.073 182.906-.036 274.365-.024 3.75-.34 7.512 2.342 8.143 6.105.437 3.555.194 7.136.23 10.704v549.895c.73 4.928-3.47 9.637-8.47 9.163q-36.428.056-72.854 0c-4.406.352-8.557-3.41-8.314-7.876-.073-159.471.012-318.954-.036-478.425q-96.01-.036-192.02 0c-.025 156.194 0 312.388-.013 468.594-.048 3.823.23 7.683-.218 11.506-.57 3.762-4.32 6.395-8.034 6.201-24.334.049-48.68.037-73.012 0-4.418.364-8.654-3.374-8.362-7.888-.073-159.034-.037-318.08-.025-477.115-.34-20.206 6.408-40.426 18.897-56.324"/><path d="M262.91 281.159c-.449-4.636 3.726-8.836 8.374-8.338 24.297-.024 48.606-.024 72.915 0 3.702-.328 7.452 2.294 8.12 5.995.473 3.617.206 7.282.242 10.923v344.61c.11 17.877-.728 35.9 2.367 53.594 5.68 36.615 23.932 71.713 52.877 95.246 22.865 18.847 51.531 29.891 80.828 33.314 3.847-.28 4.952 4.126 4.782 7.172.024 23.885-.024 47.769.024 71.653.182 3.228-.594 6.736-3.3 8.799-3.423 3.228-8.375 1.553-12.477 1.214-43.302-5.158-85.027-22.671-119.009-50.014-19.466-15.498-36.396-34.055-50.766-54.346-.995.582-1.565 1.638-2.27 2.536-26.25 36.98-62.331 67.271-104.201 85.027-22.15 9.393-45.754 15.45-69.711 17.658-4.976.995-9.649-3.398-9.6-8.301-.158-24.722-.012-49.455-.073-74.177-.303-2.743.91-5.17 2.5-7.282 37.853-4.927 73.546-24.248 98.62-53 25.061-28.289 39.43-65.754 39.734-103.546.036-126.254-.012-252.496.024-378.737"/></svg>