<svg xmlns="http://www.w3.org/2000/svg" class="icon" viewBox="0 0 1024 1024"><path d="M105.98 420.594h56.075s-6.54 93.902-8.262 110.39c-1.723 16.524-7.91 60.891-32.344 89.086L92.902 557.81c0 .035 6.54-6.188 13.078-137.215m94.114-74.496h56.39v259.558s-11.46 40.817-43.101 40.36h-30.27l-24.61-48.903h36.317c3.903 0 3.797-5.379 3.797-3.937.035 3.199 1.477-247.078 1.477-247.078m282.48-2.32-28.441 64.195s-5.028 12.832 3.199 13.289c8.262.457 47.215 0 47.215 0l-39.445 88.488s-4.114 11.46 3.656 11.46h29.355l-19.547 45.845H414.23s-27.984-4.114-16.523-29.356 28.441-65.11 28.441-65.11l-28.898.458s-26.121-5.52-13.29-32.098c12.833-26.613 44.93-97.207 44.93-97.207h53.684zm-188.472 76.148h55.476s7.348 134.12 13.184 134.613l-28.336 63.95s-26.121-19.723-33.012-99.282c-5.66-65.672-7.312-99.281-7.312-99.281m94.921 165.058s1.829 5.028 22.922 5.028h64.196l-25.664 55.476h-68.344s-19.934.457-19.371-5.976zm260.93-220.113v55.512h-34.875v169.664h54.14v55.476h-185.73l24.293-55.02h47.707l.914-170.577-33.468-.457-1.372-54.598zM933.875 596.902v-77.941c0-46.3-49.148-48.164-49.148-48.164h-14.204v-51.363c.457-47.215-56.847-54.563-56.847-54.563h-35.297v-21.55h-55.02l.914 21.55h-38.988v54.563h37.617v51.82h-56.918v55.476l56.848.457v118.301h55.477V526.766h88.488c11.918 0 12.832 11.918 12.832 11.918s2.988 32.449 2.18 46.3c-.809 13.746-10.899 12.832-10.899 12.832h-45.844l22.008 47.707h41.73c48.657 0 45.071-48.62 45.071-48.62M816.383 424.285v45.844H777.43v-49.992h33.258c6.433 0 5.695 4.148 5.695 4.148"/><path d="M907.508 418.52H881.14v-26.368c0-14.484 11.882-26.367 26.367-26.367 14.52 0 26.367 11.883 26.367 26.367s-11.848 26.368-26.367 26.368"/></svg>