<svg xmlns="http://www.w3.org/2000/svg" class="icon" viewBox="0 0 1024 1024"><path d="M571.96 191.26v651.833h68.268l28.672 81.238 121.06-81.238h149.617V191.26zm281.828 565.476h-68.152l-85.448 57.344-20.252-57.344h-20.48V280.235h194.219v476.501zM528.043 483.442H376.946c2.39-51.086 4.892-118.67 7.51-196.722H533.39l-.114-9.216c0-.683-.227-16.725-2.616-33.11-2.39-17.066-7.51-39.708-23.894-39.708H256.91c5.006-23.438 17.863-79.303 33.45-106.723l7.283-12.743-14.678-.797c-.91 0-22.3-1.024-47.104 12.06-40.618 21.618-58.823 64.171-66.787 96.029-20.935 83.172-50.745 140.97-63.374 165.66-3.755 7.282-6.03 11.606-7.055 14.564-2.048 5.575-.91 11.15 3.186 14.791 11.947 10.809 43.463-3.3 43.805-3.413.682-.342 1.479-.683 2.503-1.138 15.815-7.168 62.691-28.444 79.417-96.142h64.512c.796 36.636 3.527 157.468 3.3 196.722H134.94l-2.389 1.706c-26.283 19.229-34.702 71.908-35.043 74.183l-1.593 10.468h190.009C271.929 659 255.772 698.937 247.239 714.866a1184 1184 0 0 0-12.174 23.666c-24.235 48.014-49.38 97.62-143.701 174.762-4.096 3.186-7.965 9.102-5.462 15.588 2.73 7.168 10.582 10.354 27.99 10.354 6.144 0 13.425-.342 22.072-1.138 56.776-5.006 114.688-20.48 153.714-99.67 19.342-39.936 36.068-81.578 49.949-123.904L494.933 896.57l5.69-13.653c.91-2.162 21.617-52.68 5.802-109.113l-.569-2.048-122.994-139.947-25.03 18.887c7.28-29.696 12.06-56.775 14.221-80.896H552.62v-9.102c0-45.625-21.05-72.704-21.846-73.842z"/></svg>