<svg xmlns="http://www.w3.org/2000/svg" class="icon" viewBox="0 0 1024 1024"><path d="M512 466.489a45.511 45.511 0 1 0 91.022 0 45.511 45.511 0 1 0-91.022 0"/><path d="M929.564 868.01 721.692 329.957V131.982h81.58V54.613H220.728v77.37h81.579v197.973L94.436 868.01c-3.186 8.42-4.893 17.294-4.893 26.282 0 40.164 32.654 72.818 72.818 72.818h699.278c8.989 0 17.863-1.707 26.283-4.892 37.546-14.45 56.206-56.662 41.642-94.208M379.676 344.406V134.258h264.648v210.147l103.424 267.72c-23.552-6.03-47.9-9.103-72.704-9.103-69.632 0-135.624 24.462-188.075 68.267-38.57 32.085-86.813 49.948-138.013 49.948-37.205 0-72.931-9.443-104.448-26.965zM168.96 889.742l47.445-122.652c40.619 20.594 85.789 31.63 132.665 31.63 69.632 0 135.623-24.462 188.075-68.267 38.57-32.085 86.812-49.948 138.012-49.948 39.823 0 77.824 10.809 111.047 30.834l68.836 178.403z"/></svg>