<svg xmlns="http://www.w3.org/2000/svg" class="icon" viewBox="0 0 1024 1024"><path d="m439.737 40.418 148.021.194c45.966.084 83.22 37.31 83.276 83.304l.056 24.134a392.9 392.9 0 0 1 80.945 45.466l19.807-11.43a83.414 83.414 0 0 1 113.734 30.515l74.205 128.076a83.414 83.414 0 0 1-26.048 111.293l-4.522 2.774-19.89 11.485a388.5 388.5 0 0 1-1.47 95.537l14.065 8.155a83.414 83.414 0 0 1 32.844 109.601l-2.303 4.328-69.516 120.392a83.414 83.414 0 0 1-109.601 32.844l-4.328-2.33-19.224-11.096a389 389 0 0 1-77.7 43.33l.028 33.066a83.414 83.414 0 0 1-78.227 83.36l-5.27.166-148.05-.194a83.414 83.414 0 0 1-83.276-83.304l-.055-39.862a394.4 394.4 0 0 1-65.273-38.726l-35.451 20.417A83.414 83.414 0 0 1 142.75 811.4L68.547 683.323A83.414 83.414 0 0 1 94.622 572.03l4.494-2.774 36.09-20.806c-2.774-26.353-2.913-53.094-.25-79.78L94.9 445.535a83.414 83.414 0 0 1-32.872-109.601l2.33-4.328 69.517-120.392a83.414 83.414 0 0 1 109.6-32.844l4.328 2.33 34.953 20.167a388.3 388.3 0 0 1 73.511-45.189l-.055-31.734a83.414 83.414 0 0 1 78.227-83.36zm-.11 83.415.082 84.746-47.935 22.58a303.6 303.6 0 0 0-57.755 35.452l-44.3 34.592L208.19 254.1l-2.108-1.165-69.489 120.392 86.743 50.071-5.381 53.594a305.4 305.4 0 0 0 .194 62.693l5.715 53.982-83.138 47.88 74.177 128.075 82.555-47.49 43.774 32.067a310 310 0 0 0 51.458 30.514l47.851 22.497.167 92.763 147.993.194-.083-88.768 51.43-21.415a305.6 305.6 0 0 0 61.029-34.038l43.746-31.457 65.882 38.032 69.462-120.392-62.693-36.284 7.767-55.62a305.1 305.1 0 0 0 1.165-75.036l-5.825-54.038 67.048-38.697-74.205-128.076-66.743 38.475-43.801-31.956a310.2 310.2 0 0 0-63.775-35.84l-51.319-21.305-.139-79.725zM605.622 363.23a166.995 166.995 0 0 1 61.084 227.968 166.58 166.58 0 0 1-227.747 61.028 166.995 166.995 0 0 1-61.056-227.968 166.58 166.58 0 0 1 227.747-61.028zM450.14 465.924a83.61 83.61 0 0 0 30.57 114.095 83.193 83.193 0 0 0 113.734-30.459c22.22-38.53 10.263-87.409-26.381-111.543l-4.161-2.58-4.328-2.33a83.193 83.193 0 0 0-109.434 32.817"/></svg>