<svg xmlns="http://www.w3.org/2000/svg" class="icon" viewBox="0 0 1024 1024"><path d="M959.36 498.027 67.093 50.667c-3.626-1.814-7.786-2.24-11.733-1.28-9.067 2.24-14.72 11.413-12.48 20.586l91.947 375.68c1.386 5.654 5.546 10.24 11.093 12.054l157.547 54.08-157.44 54.08c-5.547 1.92-9.707 6.4-10.987 12.053L42.88 954.133c-.96 3.947-.533 8.107 1.28 11.627 4.16 8.427 14.4 11.84 22.933 7.68l892.267-444.8c3.307-1.6 5.973-4.373 7.68-7.573 4.16-8.534.747-18.774-7.68-23.04M148.053 847.253l53.654-219.306 314.88-108.054c2.453-.853 4.48-2.773 5.333-5.333 1.493-4.48-.853-9.28-5.333-10.88l-314.88-107.947-53.44-218.453 669.866 335.893z"/></svg>