<svg xmlns="http://www.w3.org/2000/svg" class="icon" viewBox="0 0 1024 1024"><path d="M912.498 766.862c0-126.976-74.41-236.658-182.045-287.744V290.475c0-17.18-6.03-33.792-17.18-46.877L539.876 38.002c-7.282-8.647-17.636-12.97-27.876-12.97s-20.594 4.323-27.876 12.97L310.727 243.598c-11.036 13.085-17.18 29.696-17.18 46.877v188.643c-107.634 51.086-182.045 160.768-182.045 287.744h178.062c-2.616 8.192-3.982 17.067-3.982 27.08 0 25.144 8.647 49.72 24.349 69.176 12.857 15.93 29.81 27.99 49.038 34.816C385.252 959.374 444.985 998.97 512 998.97c33.11 0 65.195-9.785 92.615-28.217 26.852-17.977 47.673-43.122 60.302-72.818 19.229-6.826 36.182-18.773 49.039-34.702 15.7-19.57 24.348-44.146 24.348-69.177 0-9.557-1.252-18.66-3.527-27.079h177.72zm-115.712-130.39c10.695 16.612 19.342 34.476 25.6 53.021h-96.484V565.134c28.217 18.432 52.452 42.667 70.884 71.339m-425.87-157.354V292.181L512 124.928l141.084 167.253v397.312H370.916zM201.614 689.493c6.258-18.545 14.905-36.409 25.6-53.02 18.546-28.672 42.667-52.907 70.884-71.339v124.36zm442.482 132.21c-5.916 3.413-12.743 4.779-19.456 3.869l-22.187-2.731-3.185 22.073c-6.144 43.122-43.691 75.662-87.268 75.662s-81.124-32.54-87.268-75.662l-3.185-22.187-22.187 2.845c-1.138.113-2.39.227-3.755.227-5.575 0-10.922-1.479-15.701-4.21-9.899-5.689-16.043-16.27-16.043-27.761 0-12.06 6.713-22.073 16.612-27.08H643.64c10.012 5.12 16.611 15.133 16.611 27.08-.113 11.605-6.257 22.3-16.156 27.875"/><path d="M457.387 384.569a54.613 54.613 0 1 0 109.226 0 54.613 54.613 0 1 0-109.226 0"/></svg>