<svg xmlns="http://www.w3.org/2000/svg" class="icon" viewBox="0 0 1024 1024">
  <path d="M280.35247438 619.31391781a371.8238653 371.8238653 0 0 0 197.77957406 56.60866125 376.423084 376.423084 0 0 0 57.46854-4.39744781v320.47441594H148.34605437a86.20280906 86.20280906 0 0 1-65.45824312-142.29290344zM520.57157375 32a287.34458438 287.34458438 0 1 1-287.34269906 287.34458438A287.33892656 287.33892656 0 0 1 520.5696875 32zm304.40449594 611.92793719a86.1273816 86.1273816 0 0 1 74.61519376 43.06557656l50.72905405 87.90748031a86.1273816 86.1273816 0 0 1 0 86.12738157l-50.72905405 87.90748124a86.1273816 86.1273816 0 0 1-74.61708 43.06369032H723.48967531a86.1273816 86.1273816 0 0 1-74.61707906-43.06369032l-50.72905405-87.90748124a86.1273816 86.1273816 0 0 1 0-86.12738157l50.72905405-87.90748031a86.1273816 86.1273816 0 0 1 74.61707906-43.06369125zm0 86.12926687H723.48779001l-50.75733939 87.90748125 50.75922469 87.90748031h101.48639438l50.75733937-87.90748031zm-52.53743907 43.81042782a43.06369125 43.06369125 0 1 1-43.06369031 43.06369031 43.06369125 43.06369125 0 0 1 43.06369031-43.06369031"/>
</svg>
