<svg xmlns="http://www.w3.org/2000/svg" class="icon" viewBox="0 0 1024 1024"><path d="M518.186 40.418a157.203 157.203 0 0 1 148.243 209.577h135.316a83.22 83.22 0 0 1 83.22 83.22v567.146a83.22 83.22 0 0 1-83.22 83.22H234.6a83.22 83.22 0 0 1-83.22-83.22V787.1c0-20.417 15.59-37.228 35.507-39.114l3.8-.194a117.895 117.895 0 0 0 5.715-235.652l-5.715-.139a39.31 39.31 0 0 1-39.113-35.507l-.194-3.828v-139.45a83.22 83.22 0 0 1 83.22-83.22h135.316a157 157 0 0 1-8.932-52.43c0-111.098 46.048-157.147 157.203-157.147m0 83.22a73.983 73.983 0 0 0-69.794 98.644l39.197 110.933h-252.99v100.364a201.199 201.199 0 0 1 6.713 390.997l-6.713 1.636v74.15h567.146v-567.12l-252.99-.027 39.197-110.96a73.983 73.983 0 0 0-69.794-98.616z"/></svg>