<svg xmlns="http://www.w3.org/2000/svg" class="icon" viewBox="0 0 1024 1024"><path d="M330.972 736.525a125.37 125.37 0 0 1 118.21 83.56h536.25v88.769H447.198a125.37 125.37 0 0 1-232.425 0H38.569v-88.769h174.223a125.37 125.37 0 0 1 118.18-83.56m0 88.768a36.543 36.543 0 1 0 0 73.086 36.543 36.543 0 0 0 0-73.086m362.056-422.951a125.37 125.37 0 0 1 118.18 83.56h174.223v88.768H809.226a125.37 125.37 0 0 1-232.425 0H38.569v-88.768h536.25a125.37 125.37 0 0 1 118.21-83.56m0 88.768a36.543 36.543 0 1 0 0 73.086 36.543 36.543 0 0 0 0-73.086M330.972 68.158a125.37 125.37 0 0 1 118.21 83.531h536.25v88.769H447.198a125.37 125.37 0 0 1-232.425 0H38.569v-88.769h174.223a125.37 125.37 0 0 1 118.18-83.53m0 88.769a36.543 36.543 0 1 0 0 73.086 36.543 36.543 0 0 0 0-73.086"/></svg>