<svg xmlns="http://www.w3.org/2000/svg" class="icon" viewBox="0 0 1024 1024">
  <path d="m679.48088853 601.82593066 207.34862294 241.91106027a82.59616533 82.59616533 0 0 1-62.72731415 136.37729494H192.01787948a82.59616533 82.59616533 0 0 1-62.70130776-136.37729494L336.6912 601.82593066a328.9022987 328.9022987 0 0 0 171.38184107 47.85168213c62.75332052 0 121.4236448-17.47626667 171.38184106-47.85168213zM508.04703467 43.88571413c152.08513066 0 275.3552256 123.27009492 275.3552256 275.3552256 0 152.08513066-123.27009492 275.3552256-275.3552256 275.3552256-152.08513066 0-275.3552256-123.27009492-275.3552256-275.3552256 0-152.05912426 123.27009599-275.3552256 275.381232-275.3552256z"/>
</svg>
