<svg xmlns="http://www.w3.org/2000/svg" class="icon" viewBox="0 0 1024 1024">
  <path d="M901.87054375 234.59894128c46.15953644 0 83.56059667 37.28270222 83.56059546 83.20552384v554.80211622a83.38305965 83.38305965 0 0 1-83.56059546 83.23511213H795.79237823a166.322277 166.322277 0 0 0 22.54715836-83.88608V234.59894128zM679.09160262 68.15830653c46.15953644 0 83.56059667 37.28270222 83.56059667 83.20552262v721.24275219a83.38305965 83.38305965 0 0 1-83.56059667 83.23511213H122.12945625a83.38305965 83.38305965 0 0 1-83.56059546-83.23511213V151.36382915a83.38305965 83.38305965 0 0 1 83.56059546-83.20552262zM428.46899283 484.24509986H205.66046341v83.23511213h222.80852942zm167.09160384-166.44063474H205.66046341v83.23511212h389.90013326z"/>
</svg>
