<svg xmlns="http://www.w3.org/2000/svg" class="icon" viewBox="0 0 1024 1024"><path d="M995.51 121.253v242.393a124.83 124.83 0 0 1-124.83 124.83H541.682v63.941h9.93a83.22 83.22 0 0 1 83.221 83.22v264.724a83.22 83.22 0 0 1-83.22 83.22H448.558a83.22 83.22 0 0 1-83.22-83.22V635.638a83.22 83.22 0 0 1 83.22-83.22h9.904V405.255H870.68a41.61 41.61 0 0 0 41.61-41.61V121.253zM551.64 635.638H448.587V900.36h103.055zm240.923-595.22a83.22 83.22 0 0 1 83.22 83.22v156.926a83.22 83.22 0 0 1-83.22 83.22H123.64a83.22 83.22 0 0 1-83.22-83.22V123.64a83.22 83.22 0 0 1 83.22-83.22zm0 83.22H123.64v156.926h668.924z"/></svg>