<svg xmlns="http://www.w3.org/2000/svg" class="icon" viewBox="0 0 1024 1024">
  <path d="M924.63445333 754.72554667H99.36554667c-26.69909333 0-48.54442667 21.84533333-48.54442667 48.54556444v121.36334222c0 26.69909333 21.84533333 48.54442667 48.54442667 48.54442667h825.26890666c26.69909333 0 48.54442667-21.84533333 48.54442667-48.54442667V803.27111111c0-26.70023111-21.84533333-48.54556445-48.54442667-48.54556444M499.86332445 900.36110222H184.32c-19.41845333 0-36.40888889-16.99043555-36.40888889-36.40888889S164.90154666 827.54332444 184.32 827.54332445h315.54332445c19.41845333 0 36.40888889 16.99157333 36.40888888 36.40888888s-16.99043555 36.40888889-36.40888888 36.40888889m218.45333333 0c-19.41731555 0-36.40888889-16.99043555-36.40888889-36.40888889s16.99157333-36.40888889 36.40888889-36.40888888 36.40888889 16.99157333 36.40888889 36.40888888-16.99043555 36.40888889-36.40888889 36.40888889m121.36334222 0c-19.41845333 0-36.40888889-16.99043555-36.40888889-36.40888889S820.26154666 827.54332444 839.68 827.54332445s36.40888889 16.99157333 36.40888889 36.40888888S859.09845334 900.36110222 839.68 900.36110222M924.63445333 50.82112H99.36554667c-26.69909333 0-48.54442667 21.84533333-48.54442667 48.54442667v533.99779555c0 26.69909333 21.84533333 48.54442667 48.54442667 48.54442667h825.26890666c26.69909333 0 48.54442667-21.84533333 48.54442667-48.54442667V99.36554667c0-26.69909333-21.84533333-48.54442667-48.54442667-48.54442667M839.68 461.02755555h-94.66311111c-21.84533333 0-43.69066667-12.13667555-53.39932444-31.5539911L592.09955555 247.42912 490.15466667 555.69066667C482.87288889 577.536 465.88245334 594.52643556 444.03712 596.95445333h-12.13667555c-21.84533333 0-41.26378667-9.70979555-50.97244445-29.12711111l-82.52643555-133.50001777H184.32c-19.41845333 0-36.40888889-16.99043555-36.40888889-36.4088889S164.90154666 361.50954666 184.32 361.50954667h133.49888c12.13667555 0 24.27335111 7.28177778 31.55512889 16.99157333l80.09955556 128.64398222 101.94488888-308.26154667c7.28177778-21.84533333 24.27221333-38.83576889 48.54442667-43.69066666 26.70023111-4.85489778 50.97244445 7.28177778 63.10912 31.55399111l109.22666667 199.03601778H839.68c19.41845333 0 36.40888889 16.99043555 36.40888889 36.40888889S859.09845333 461.02755555 839.68 461.02755555"/>
</svg>
